<svg id="Layer_1" data-name="Layer 1" xmlns="http://www.w3.org/2000/svg" xmlns:xlink="http://www.w3.org/1999/xlink" viewBox="0 0 82.76 94.98"><defs><style>.cls-1{fill:url(#Degradado_sin_nombre_27);}.cls-2{fill:url(#Degradado_sin_nombre_27-2);}.cls-3{fill:url(#Degradado_sin_nombre_24);}.cls-4{fill:url(#Degradado_sin_nombre_24-2);}</style><linearGradient id="Degradado_sin_nombre_27" x1="-3166.08" y1="-1.15" x2="-3133.26" y2="104.96" gradientTransform="matrix(-1, 0, 0, 1, -3092.87, 0)" gradientUnits="userSpaceOnUse"><stop offset="0" stop-color="#007eff"/><stop offset="1" stop-color="#001c3e"/></linearGradient><linearGradient id="Degradado_sin_nombre_27-2" x1="-3168.06" y1="-14.06" x2="-3134.06" y2="83.87" xlink:href="#Degradado_sin_nombre_27"/><linearGradient id="Degradado_sin_nombre_24" x1="9.56" y1="-1.15" x2="42.38" y2="104.96" gradientUnits="userSpaceOnUse"><stop offset="0" stop-color="#00e8ff"/><stop offset="1" stop-color="#007eff"/></linearGradient><linearGradient id="Degradado_sin_nombre_24-2" x1="7.57" y1="-14.06" x2="41.57" y2="83.87" xlink:href="#Degradado_sin_nombre_24"/></defs><path class="cls-1" d="M15.75,95H66c16.8-21.29,21.74-53.3,11.3-81L72,0V0l.28,5c1.43,26.14-8.76,51.21-26.76,65.81Z"/><path class="cls-2" d="M15.75,95H44.39c10-8,19.81-18.11,24.75-29.88C81.44,35.85,72.33,1.11,72,0V0l.28,5c1.43,26.14-8.76,51.21-26.76,65.81Z"/><path class="cls-3" d="M67,95H16.77C0,73.69-5,41.68,5.46,14L10.72,0V0l-.28,5C9,31.15,19.21,56.22,37.2,70.82Z"/><path class="cls-4" d="M67,95H38.37c-10-8-19.81-18.11-24.75-29.88C1.32,35.85,10.43,1.11,10.72,0V0l-.28,5C9,31.15,19.21,56.22,37.2,70.82Z"/></svg>