<?xml version="1.0" encoding="utf-8"?>
<!-- Generator: Adobe Illustrator 26.3.1, SVG Export Plug-In . SVG Version: 6.00 Build 0)  -->
<svg version="1.1" id="Layer_1" xmlns="http://www.w3.org/2000/svg" xmlns:xlink="http://www.w3.org/1999/xlink" x="0px" y="0px"
	 viewBox="0 0 281.7 226.2" style="enable-background:new 0 0 281.7 226.2;" xml:space="preserve">
<style type="text/css">
	.st0{fill:#3B82F6;}
</style>
<path class="st0" d="M114.6,96.6c3-4.7,6.3-9.6,9.6-14C158.4,34,199,19.7,221.6,16.1c-12.4,3.3-23.8,9.6-33.2,18.3
	C163.1,54,134.5,96.6,100.3,188c-0.6,1.9-1.6,3.6-3,5v0.3l0,0c-7.7,9.3-22.6-34.9-26.6-46.5L34.1,44.4
	c-7.3-20.9-10.6-27.6-17.6-29.3c-3.8-0.9-7.7-1.4-11.6-1.4c-2.4-0.3-4.3-1.3-4.7-2.7c-1-2.3,1.3-2.6,4.7-2.6
	C17.5,8.8,29.5,10,31.8,10c4.7,0,15.9-0.7,31.9-0.3c3.3,0.3,5.6,0.6,6.3,2.7c0.7,1.6-0.3,2.6-3.3,2.6c-4.1-0.4-8.3,0-12.3,1.3
	c-4.3,1.6-5.3,7.3,0.7,25.9l23.6,75.8c18.6-68.2,91.4-157,203-99.8C195.3-19.9,150.1,36,114.6,96.6L114.6,96.6z"/>
</svg>
