<svg id="Layer_1" data-name="Layer 1" xmlns="http://www.w3.org/2000/svg" viewBox="0 0 501.3 226.16"><defs><style>.cls-1,.cls-2{fill:#191919;}.cls-2{fill-rule:evenodd;}.cls-3,.cls-5{fill:#3b82f6;}.cls-4{fill:#585e5e;}.cls-5{isolation:isolate;font-size:48px;font-family:BerlinSansFB-Reg, Berlin Sans FB;}</style></defs><g id="Layer_1-2" data-name="Layer 1"><path class="cls-1" d="M227.17,15.16C122.1,45.53,130.46,226.08,131,226.16,130,226.35-3.63,43.92,29.2,180.85c2.68,10.7-23.41-63.74-10.1-84.75,5.11-8.1,16.06-9.91,38.11,3,18.61,10.74,35.09,26.49,45.64,34.81C154.5,24.54,236.37,12.53,227.17,15.23Z"/><path class="cls-2" d="M130.48,225a5.52,5.52,0,0,0-.81-.93c-1.06-1.35-2.11-2.81-3.17-4.15-3.61-4.69-7.21-9.32-11-14C105,192.53,94.41,179.51,83.56,167.38,73.63,156,62.72,144.31,51.68,135.17c-5.37-4.37-16.36-12.87-23-9.91-5.07,2.21-5.83,9.8-5.92,15a94.34,94.34,0,0,0,1.45,16.44c1,7.38,2.59,14.82,4.3,22.21-1.42-4-3.49-11.12-4-12.35-2.75-10.27-5.3-20.49-7-30.62-1.82-11.24-4.13-30.37,1.79-39.74,8-12.61,27.23-3.12,37.74,3a213.12,213.12,0,0,1,25.77,18.26c6.53,5.38,13.14,11.24,19.8,16.62l.32.26.2-.37c18.59-39.06,44.47-74.41,79.61-98.16A166.67,166.67,0,0,1,214,19.15c2.19-.81,4.5-1.58,6.77-2.37a105.68,105.68,0,0,0-41.34,26.74A137.59,137.59,0,0,0,159,71.9c-15.21,28.18-23.31,63.25-26.86,98.41-1.27,12.85-2.1,26-2.13,39.48-.07,4,0,7.93.25,11.91.06,1,.09,2.06.12,3.27Z"/><path class="cls-2" d="M130,223.87s0,0,0-.14c-1.19-1.42-2.22-2.77-3.39-4.2-3.55-4.69-7.28-9.43-11-14-10.47-13.36-21.06-26.28-31.77-38.47-10-11.25-20.89-23-32-32.07-5.49-4.49-16.45-13-23.18-10-5.19,2.2-6,9.94-6.2,15.28a114.21,114.21,0,0,0,1.37,16.52c.9,5.15,1.74,10.31,2.89,15.52-.7-2-1.31-4.13-1.92-6.15a303.4,303.4,0,0,1-6.85-30.25C16,124.7,13.74,105.7,19.66,96.44c7.79-12.43,26.94-2.92,37.26,3A201.35,201.35,0,0,1,82.53,117.7c6.6,5.36,13.14,11.15,19.83,16.56l.73.58.25-.67c18.58-39,44.42-74.17,79.36-97.89a163.22,163.22,0,0,1,22.92-13.16,103.78,103.78,0,0,0-26.33,20.14,138.25,138.25,0,0,0-20.58,28.52C143.55,99.94,135.4,135,131.79,170.25c-1.23,12.71-2.11,26-2.12,39.53,0,3.91,0,7.91.14,11.81a17.24,17.24,0,0,1,.2,2.27Z"/><path class="cls-2" d="M129.63,222.75c-1.06-1.21-1.85-2.43-2.84-3.53-3.65-4.85-7.41-9.43-10.92-14-10.59-13.33-21.09-26.16-31.89-38.3-10-11.42-20.93-23.1-32-32.22-5.57-4.61-16.6-13.1-23.58-10-5.32,2.26-6.16,10.07-6.25,15.5a106.47,106.47,0,0,0,1.34,16.63c.4,2.81.85,5.67,1.54,8.66a257,257,0,0,1-6.93-29.64c-1.83-11.06-4.06-30,1.69-39.19,7.88-12.35,26.75-2.81,36.94,3.15A198.49,198.49,0,0,1,82.29,118c6.65,5.33,13.1,11.14,20,16.58l1,.86.4-1c18.4-38.89,44.15-74.06,78.88-97.62a170.73,170.73,0,0,1,14.73-9A107.5,107.5,0,0,0,179,43.06a132.92,132.92,0,0,0-20.45,28.58c-15.27,28.09-23.4,63.15-27,98.53a382.51,382.51,0,0,0-2.14,39.46c0,4,0,7.93.13,12,0,.31.12.71.14,1.09Z"/><path class="cls-2" d="M129.22,221.7c-.81-1-1.52-1.88-2.27-2.88-3.63-4.7-7.3-9.35-10.93-13.95-10.49-13.33-21-26.13-31.8-38.2-10-11.29-20.81-23.09-32-32.32-5.82-4.59-16.73-13.06-24-10-5.43,2.26-6.37,10.21-6.44,15.77a111.41,111.41,0,0,0,1.33,16.72c.13.75.21,1.48.41,2.2-2.07-7.79-3.81-15.54-5.16-23.22-1.78-11-4.08-30,1.67-39.07,7.75-12,26.57-2.56,36.61,3.22,8.84,5.15,17.16,11.51,25.52,18.17,6.57,5.36,13.15,11.23,19.88,16.71l1.3,1,.6-1.29C122.3,95.78,148,60.75,182.58,37.09c2.8-1.87,5.8-3.86,8.75-5.61a111,111,0,0,0-12.69,11.44,131.26,131.26,0,0,0-20.45,28.5c-15.34,28.24-23.47,63.33-27.1,98.6-1.32,12.87-2.07,26.08-2.13,39.62,0,4,0,7.89.17,11.87a.45.45,0,0,0,.05.23Z"/><path class="cls-2" d="M128.72,220.7a18.69,18.69,0,0,0-1.57-2.09c-3.65-4.76-7.34-9.39-11-14q-15.57-19.91-31.56-38.07c-10.06-11.46-21-23.22-32.17-32.36-5.94-4.83-17-13.27-24.27-10.16-5.52,2.45-6.58,10.4-6.53,16a86,86,0,0,0,.72,13.23c-1.33-5.85-2.55-11.69-3.61-17.48C16.91,124.88,14.73,106,20.4,97c7.54-12,26.33-2.46,36.12,3.26,8.88,5.14,17.24,11.51,25.52,18.16,6.53,5.35,13.06,11.22,19.8,16.64l1.62,1.33.89-1.71C122.67,96,148.21,61.14,182.7,37.51c1.37-.89,2.72-1.83,4.09-2.77a95.24,95.24,0,0,0-8.4,7.92,131.08,131.08,0,0,0-20.52,28.61C142.49,99.52,134.5,134.63,130.75,170c-1.32,12.81-2.11,26.07-2.18,39.56,0,3.67.07,7.41.15,11.14Z"/><path class="cls-2" d="M128.39,219.51c-.38-.36-.59-.77-1-1.14-3.65-4.82-7.3-9.39-11-14.1q-15.57-19.89-31.53-38.13c-10.09-11.27-21-23-32.21-32.16-6-5-17.21-13.45-24.63-10.14-5.72,2.39-6.66,10.38-6.82,16.3a71,71,0,0,0,.32,8.14c-.89-4.17-1.7-8.38-2.39-12.51C17.31,125,15,106.1,20.64,97.2c7.38-11.87,26.09-2.27,35.75,3.35a205.63,205.63,0,0,1,25.4,18.15c6.62,5.41,13.11,11.28,19.88,16.68l1.91,1.5,1.09-2c18.27-38.53,43.79-73.43,78.14-97,0,0,0-.14.13-.09-1.58,1.47-3.24,3.07-4.66,4.57a129.25,129.25,0,0,0-20.7,28.7c-15.29,28.31-23.52,63.42-27.19,98.88-1.22,12.79-2,26-2.12,39.58,0,3.37.07,6.74.12,10Z"/><path class="cls-2" d="M127.91,218.59a3,3,0,0,0-.35-.59c-3.65-4.7-7.4-9.41-11-14-10.5-13.23-21-25.89-31.63-38.06-10.11-11.37-21-23.11-32.22-32.2-6.05-5.07-17.33-13.56-24.88-10.34C22,126,21.05,134,20.83,140c0,1.49.08,2.8,0,4.11-.56-2.79-1.17-5.63-1.54-8.34C17.5,125,15.2,106.2,20.83,97.27c7.3-11.59,25.77-1.94,35.31,3.6a192.89,192.89,0,0,1,25.32,18c6.66,5.35,13.1,11.19,19.92,16.67l2.36,1.87,1.17-2.39C122.42,97.69,146.78,64,179.36,40.48c-.48.58-1.06,1-1.58,1.67a132.11,132.11,0,0,0-20.61,28.62C141.92,99.2,133.71,134.36,130,169.7c-1.22,12.88-2,26.21-2.14,39.68-.09,3,.06,6.11.06,9.19Z"/><path class="cls-2" d="M127.65,217.48c-3.7-4.57-7.21-9.13-10.82-13.72-10.49-13.14-20.92-25.94-31.59-37.87-10.1-11.36-21.13-23.27-32.33-32.41-6.14-5.18-17.55-13.66-25.17-10.37-6,2.53-7.06,10.66-7.18,16.93v.64c-.36-1.62-.65-3.25-.9-5-1.78-10.54-4.09-29.31,1.51-38.08,7.18-11.49,25.59-1.9,34.86,3.5a201.89,201.89,0,0,1,25.32,18.14c6.66,5.4,13.1,11.15,19.92,16.61l2.63,2.2,1.3-2.73c16.91-36,40.29-68.69,71.25-92.09A136.59,136.59,0,0,0,157,70.7c-15.47,28.33-23.5,63.54-27.23,99a378.35,378.35,0,0,0-2.21,39.67c0,2.7,0,5.43.07,8.12Z"/><path class="cls-2" d="M127.22,216.54c-3.43-4.46-6.82-8.69-10.11-13.06-10.57-13.11-21-25.89-31.67-37.87-10.14-11.44-21.09-23.24-32.37-32.4C46.85,128,35.49,119.47,27.58,122.9c-5.36,2.29-6.86,9-7.27,15,0-.78-.24-1.59-.27-2.23-1.75-10.5-4.1-29.31,1.37-38C28.6,86.41,46.8,96.11,56,101.32A195.24,195.24,0,0,1,81.22,119.4c6.62,5.37,13.11,11.23,19.92,16.67l3,2.35,1.46-3.08c16.41-34.75,38.71-66.46,68.13-89.57A142.9,142.9,0,0,0,156.64,70.5c-15.29,28.28-23.49,63.54-27.18,99-1.37,12.92-2.21,26.25-2.3,39.79,0,2.32,0,4.82.09,7.23Z"/><path class="cls-2" d="M126.81,215.49c-3.11-4.13-6.35-8.23-9.68-12.27-10.39-13.1-20.77-25.85-31.49-37.78-10.09-11.51-21-23.27-32.37-32.51-6.38-5.28-17.91-13.77-25.82-10.4-4.75,2.07-6.6,7.56-7.18,12.91-1.74-10.47-3.93-29,1.35-37.59,7-11.07,25.31-1.37,34.2,3.85A206.86,206.86,0,0,1,81,119.53c6.62,5.46,13.14,11.4,19.84,16.88l3.53,2.56,1.5-3.29c15.89-33.7,37.21-64.59,65.29-87.39a139.72,139.72,0,0,0-14.86,22.14C141,98.7,132.85,134,129.08,169.54c-1.44,12.81-2.11,26-2.29,39.7,0,2,.12,4.12,0,6.25Z"/><path class="cls-2" d="M126.52,214.52c-3.11-3.86-6-7.73-9.14-11.55C107,189.81,96.52,177.13,86,165.16,75.75,153.79,64.79,141.9,53.52,132.7c-6.67-5.39-18.16-13.93-26.27-10.39-4.17,1.83-6.17,6.34-6.94,11.09C18.53,122.86,16.87,106,21.94,98c6.86-10.85,25-1.17,33.81,3.91A215.4,215.4,0,0,1,80.9,120c6.54,5.39,13.11,11.24,19.88,16.7l3.61,2.89,1.79-3.7c15.39-32.59,35.9-62.49,62.56-85.11a150.83,150.83,0,0,0-12.61,19.49c-15.51,28.41-23.66,63.69-27.45,99.19-1.3,12.92-2.07,26.28-2.22,39.8.06,1.79,0,3.53.06,5.36Z"/><path class="cls-2" d="M126.14,213.5c-2.84-3.65-5.7-7.27-8.43-10.75C107.11,189.63,96.77,177,86.14,165,76,153.45,65,141.7,53.63,132.46c-6.7-5.55-18.22-14-26.5-10.49-3.85,1.62-5.84,5.39-6.82,9.66-1.53-10.53-2.88-25.93,1.83-33.43.65-.88,1.26-1.56,1.87-2.29,7.58-6.78,23.81,1.76,31.54,6.28a206.9,206.9,0,0,1,25.15,18c6.57,5.42,13.06,11.27,19.84,16.72L104.6,140l1.9-4.08c14.77-31.57,34.57-60.57,60-82.89a150.19,150.19,0,0,0-10.75,17c-15.54,28.41-23.76,63.75-27.51,99.28-1.32,12.88-2,26.25-2.13,39.75v4.45Z"/><path class="cls-2" d="M125.75,212.51c-2.61-3.42-5.25-6.68-7.85-10.07-10.42-13-20.86-25.76-31.52-37.7-10.15-11.49-21.26-23.29-32.58-32.59-6.71-5.6-18.35-14-26.75-10.53-3.53,1.54-5.59,4.69-6.65,8.39-1.51-10.42-2.4-24.54,2-31.62a16.92,16.92,0,0,1,1.9-2.24c7.31-6.66,23.62,2,31.09,6.37a180.3,180.3,0,0,1,25,17.86c6.82,5.42,13.11,11.34,20,16.78l4.18,3.43,2.19-4.46C121.09,105.54,140,77.4,164.33,55.42a137.53,137.53,0,0,0-8.89,14.47C140,98.33,131.7,133.59,128,169.2c-1.33,12.93-2.08,26.31-2.18,39.83,0,1.16,0,2.3,0,3.48Z"/><path class="cls-2" d="M125.43,211.55c-2.38-3.2-4.93-6.27-7.42-9.37q-15.42-19.62-31.43-37.68C76.48,153.05,65.37,141.2,54,131.93c-7-5.7-18.59-14.24-27.07-10.55-3.29,1.32-5.24,4.12-6.46,7.3-1.33-10.16-1.94-23.42,2.23-30a10.3,10.3,0,0,1,1.87-2.29c7.14-6.48,23.33,2.16,30.65,6.34a185.52,185.52,0,0,1,25,17.94c6.65,5.39,13.14,11.22,20,16.73l4.5,3.69,2.32-4.77C121,106.7,139.2,79.37,162.41,57.84a130.14,130.14,0,0,0-7.26,11.83c-15.46,28.44-23.76,63.86-27.53,99.4q-1.92,19.5-2.13,39.88A14.14,14.14,0,0,0,125.43,211.55Z"/><path class="cls-2" d="M125.08,210.52c-2.27-2.92-4.62-5.72-6.82-8.52C107.8,189,97.49,176.29,86.79,164.35c-10.15-11.59-21.19-23.42-32.55-32.72-7.06-5.72-18.79-14.28-27.47-10.53a12.06,12.06,0,0,0-6.13,6.34c-1.18-9.86-1.59-22.35,2.35-28.62A11.27,11.27,0,0,1,24.7,96.7C31.84,90.2,48,98.87,55.05,103a211.65,211.65,0,0,1,25.08,17.88c6.53,5.36,13.1,11.28,19.88,16.76l4.91,4,2.48-5.12c13.34-28.6,31-55.11,53-76.39-1.94,3.09-3.77,6.17-5.6,9.32-15.41,28.5-23.73,63.92-27.43,99.61A371.06,371.06,0,0,0,125.1,209a7.49,7.49,0,0,0,0,1.64Z"/><path class="cls-2" d="M124.7,209.5c-2.07-2.57-4.13-5.17-6.18-7.75C108.08,188.62,97.66,176,87.19,164c-10.38-11.48-21.42-23.36-32.74-32.63C47.18,125.5,35.36,117,26.64,120.75a11.69,11.69,0,0,0-5.79,5.52C19.79,116.7,19.5,104.92,23.24,99A8.6,8.6,0,0,1,25,96.83c7-6.25,23,2.35,30,6.41A198.8,198.8,0,0,1,79.86,121c6.65,5.51,13.14,11.36,20,16.9l5.36,4.15,2.5-5.44c13.09-27.69,29.85-53.49,50.89-74.3-1.3,2.29-2.69,4.64-4.06,7C139.09,97.86,130.8,133.22,126.94,169c-1.2,12.88-2.1,26.23-2.17,39.87a1.83,1.83,0,0,1,0,.66Z"/><path class="cls-2" d="M124.37,208.55c-1.82-2.38-3.73-4.79-5.6-7.1-10.43-13.06-20.87-25.68-31.46-37.59C77.17,152.33,66,140.42,54.61,131.2c-7.36-6-19.25-14.6-28.17-10.76a12,12,0,0,0-5.36,4.89c-1-9.43-1.29-20.39,2.36-26.15a8.25,8.25,0,0,1,1.67-2.05C32,91,48,99.54,54.81,103.49a218.22,218.22,0,0,1,24.87,17.83c6.66,5.51,13.19,11.35,20,16.8l5.59,4.63,2.72-5.89c12.7-26.81,28.68-51.71,48.81-72.2-.77,1.43-1.62,3-2.56,4.47-15.5,28.54-23.82,63.91-27.54,99.75a389.61,389.61,0,0,0-2.3,39.67Z"/><path class="cls-2" d="M124.13,207.58c-1.79-2.14-3.54-4.28-5.13-6.31-10.43-13.09-20.89-25.77-31.49-37.59-10.22-11.54-21.3-23.45-32.7-32.78-7.47-6-19.48-14.73-28.53-10.8a13,13,0,0,0-5,4.3c-.78-9.08-.89-19.54,2.55-25.09a6.73,6.73,0,0,1,1.55-2c6.74-6,22.76,2.52,29.3,6.49a199.84,199.84,0,0,1,25,17.85c6.65,5.32,13.11,11.21,19.88,16.69l5.89,4.86,2.92-6.2C120.5,111.1,136,87,155.14,66.82c-.32.72-.72,1.38-1.13,2.17-15.54,28.52-23.92,64-27.64,99.75a370.08,370.08,0,0,0-2.16,38.81Z"/><path class="cls-2" d="M123.7,206.64c-1.46-1.88-3-3.75-4.48-5.64-10.45-13-20.92-25.7-31.46-37.5C77.53,151.77,66.29,140,55,130.7c-7.56-6.19-19.58-14.83-28.78-10.77a11.16,11.16,0,0,0-4.67,3.62c-.89-8.9-.77-18.89,2.63-24a4.63,4.63,0,0,1,1.51-1.88c6.49-6,22.36,2.6,29,6.46a211.13,211.13,0,0,1,24.79,17.83c6.53,5.38,13.15,11.2,19.88,16.69l6.29,5.14,3-6.42c11.79-25.14,26.49-48.54,44.79-68.18C138.05,97.74,129.81,133,126,168.63c-1.28,12.4-2.15,25.06-2.3,38Z"/><path class="cls-2" d="M123.38,205.7c-1.36-1.69-2.74-3.22-3.93-4.93-10.43-13-20.82-25.61-31.53-37.48C77.65,151.7,66.61,139.7,55.14,130.51c-7.73-6.27-19.78-15-29.06-10.9a10.93,10.93,0,0,0-4.3,3.15c-.77-8.6-.7-18,2.47-23.11a18.18,18.18,0,0,1,1.51-1.76c6.49-5.88,22.35,2.76,28.69,6.51a196.94,196.94,0,0,1,24.7,17.75c6.65,5.42,13.11,11.26,20,16.71l6.62,5.43,3.2-6.92c11.38-24.21,25.55-46.79,43-66-14.73,28.13-22.64,62.51-26.35,97.25-1.19,12-2,24.4-2.17,37.06Z"/><path class="cls-3" d="M114.56,96.53c3-4.65,6.33-9.62,9.64-14C158.44,34,199,19.7,221.57,16.08a78.83,78.83,0,0,0-33.23,18.27C163.08,54,134.5,96.53,100.29,188a12.73,12.73,0,0,1-3,5v.32h0c-7.67,9.3-22.61-34.93-26.62-46.54L34.11,44.33C26.8,23.38,23.48,16.7,16.55,15.08A48.59,48.59,0,0,0,4.9,13.7C2.54,13.37.56,12.39.23,11-.77,8.73,1.57,8.4,4.9,8.4,17.52,8.73,29.48,10,31.8,10c4.66,0,15.94-.66,31.94-.32,3.28.32,5.64.65,6.29,2.67C70.68,14,69.7,15,66.7,15a30.17,30.17,0,0,0-12.3,1.34c-4.31,1.64-5.32,7.3.7,25.93l23.56,75.81c18.64-68.18,91.4-157,203-99.78C195.29-19.89,150.08,36,114.53,96.49Z"/><rect class="cls-4" x="175.21" y="141.64" width="326.09" height="0.92"/><rect class="cls-4" x="175.21" y="79.71" width="326.09" height="0.92"/><text class="cls-5" transform="translate(179.87 127.62)">VIRAL DESIGNS</text></g></svg>